<?xml version="1.0" encoding="utf-8"?>
<!-- Generator: Adobe Illustrator 23.0.2, SVG Export Plug-In . SVG Version: 6.00 Build 0)  -->
<svg version="1.1" id="Layer_1" xmlns="http://www.w3.org/2000/svg" xmlns:xlink="http://www.w3.org/1999/xlink" x="0px" y="0px"
	 viewBox="0 0 361.4 170.8" style="enable-background:new 0 0 361.4 170.8;" xml:space="preserve">
<style type="text/css">
	.st0{fill:#90A99C;}
	.st1{fill:#D1DCC0;}
	.st2{opacity:0.6;fill:url(#SVGID_1_);}
	.st3{opacity:0.6;fill:url(#SVGID_2_);}
	.st4{opacity:0.6;fill:url(#SVGID_3_);}
	.st5{opacity:0.6;fill:url(#SVGID_4_);}
	.st6{opacity:0.6;fill:url(#SVGID_5_);}
	.st7{fill:#193440;}
	.st8{opacity:0.6;fill:url(#SVGID_6_);}
	.st9{fill:#3F616E;}
	.st10{opacity:0.6;fill:url(#SVGID_7_);}
	.st11{fill:#FFFFFF;}
</style>
<g>
	<path class="st0" d="M83.5,3.3c-6.8,0-12.2,1.5-18.6,3l5.1,32.5c1,0.6,1.9,1.4,2.8,2.3c3.5-0.8,7.2-1.3,10.9-1.3
		c2.1,0,4.1,0.1,6.1,0.4c-1.3-0.7-2.2-1.7-2.1-2.8c0.1-1.9,3.1-3.2,6.6-2.9c3.5,0.3,6.2,2,6.1,3.9c-0.1,1.6-2.2,2.7-4.9,2.9
		c19.4,5,34,22.2,35,43c0.1,0.9,0.1,1.8,0.1,2.8l0,0c0,48-47.1,83.8-47.1,83.8s0,0,0,0c46.2,0,83.7-37.5,83.7-83.8
		C167.3,40.8,129.8,3.3,83.5,3.3z M116.4,43.6c-0.7-0.7-1.3-1.3-2-1.8l3.2-0.6C117.2,42,116.8,42.8,116.4,43.6z"/>
	<path class="st1" d="M83.8,3.3C37.5,3.3,0,40.8,0,87.1s37.5,83.8,83.8,83.8s83.8-37.5,83.8-83.8S130,3.3,83.8,3.3z M117.6,41.1
		c-0.4,0.9-0.8,1.7-1.2,2.5c-0.7-0.7-1.3-1.3-2-1.8L117.6,41.1z M126.3,106.3c-0.2,0.4-0.4,0.9-0.6,1.3c-2.6,5.2-6.1,9.8-10.4,13.7
		c-0.7,0.6-1.4,1.2-2.1,1.8c-1,0.8-2.1,1.6-3.2,2.4c-1.2,0.8-2.5,1.6-3.9,2.3c-6.6,3.6-14.2,5.7-22.3,5.7c-8.1,0-15.7-2-22.3-5.7
		c-1.3-0.7-2.6-1.5-3.9-2.3c-1.1-0.8-2.2-1.6-3.2-2.4c-0.7-0.6-1.4-1.2-2.1-1.8c-0.6-0.5-1.1-1-1.6-1.6c-3.5-3.5-6.5-7.6-8.8-12.1
		c-0.2-0.4-0.4-0.9-0.6-1.3c-2.8-6-4.3-12.6-4.3-19.7c0-12.9,5.2-24.6,13.7-33.1c0.5-0.5,1.1-1,1.6-1.6c1.7-1.5,3.4-2.9,5.3-4.2
		c3.4-2.3,7.2-4.2,11.2-5.5c-0.6-0.6-1.2-1.2-1.9-1.7c-1.5-1-3.3-1.6-5.2-1.9c-1.9-0.4-3.9-0.4-5.9-0.3c-2,0.1-4,0.4-6,0.9
		c1.9-0.8,3.8-1.5,5.9-1.9c2-0.5,4.1-0.8,6.3-0.8c2.1,0,4.4,0.3,6.5,1.2c1.7,0.7,3.2,1.9,4.5,3.3c3.5-0.8,7.2-1.3,11-1.3
		c2.1,0,4.1,0.2,6.2,0.4c-1.4-0.7-2.2-1.7-2.1-2.8c0.1-1.9,3.1-3.2,6.6-2.9c3.5,0.3,6.2,2,6.1,3.9c-0.1,1.6-2.2,2.7-5,2.9
		c5.2,1.3,10.1,3.5,14.4,6.5c12.5,8.4,20.7,22.7,20.7,38.8C130.6,93.6,129.1,100.3,126.3,106.3z"/>
	<g>
		<linearGradient id="SVGID_1_" gradientUnits="userSpaceOnUse" x1="88.7372" y1="39.4964" x2="83.9239" y2="37.7445">
			<stop  offset="0" style="stop-color:#FFFFFF"/>
			<stop  offset="0.1884" style="stop-color:#FCFCFC"/>
			<stop  offset="0.3217" style="stop-color:#F3F3F3"/>
			<stop  offset="0.4381" style="stop-color:#E3E3E3"/>
			<stop  offset="0.5447" style="stop-color:#CDCDCD"/>
			<stop  offset="0.6448" style="stop-color:#B1B1B1"/>
			<stop  offset="0.7399" style="stop-color:#8E8E8E"/>
			<stop  offset="0.8311" style="stop-color:#646464"/>
			<stop  offset="0.917" style="stop-color:#353535"/>
			<stop  offset="1" style="stop-color:#000000"/>
		</linearGradient>
		<path class="st2" d="M86,38.3c-0.5,0.2-1,0.4-1.4,0.5c-0.4,0.1-0.8,0.2-1.2,0.4c1.8,0,3.6,0.1,5.4,0.2c-0.6-0.6-1-1.3-1-1.9
			c-0.1,0.1-0.2,0.1-0.3,0.2C87,37.9,86.5,38.1,86,38.3z"/>
		<linearGradient id="SVGID_2_" gradientUnits="userSpaceOnUse" x1="176.7438" y1="61.1448" x2="73.7115" y2="23.6441">
			<stop  offset="0" style="stop-color:#FFFFFF"/>
			<stop  offset="0.1884" style="stop-color:#FCFCFC"/>
			<stop  offset="0.3217" style="stop-color:#F3F3F3"/>
			<stop  offset="0.4381" style="stop-color:#E3E3E3"/>
			<stop  offset="0.5447" style="stop-color:#CDCDCD"/>
			<stop  offset="0.6448" style="stop-color:#B1B1B1"/>
			<stop  offset="0.7399" style="stop-color:#8E8E8E"/>
			<stop  offset="0.8311" style="stop-color:#646464"/>
			<stop  offset="0.917" style="stop-color:#353535"/>
			<stop  offset="1" style="stop-color:#000000"/>
		</linearGradient>
		<path class="st3" d="M83.5,3.3c-0.8,0-1.6,0-2.4,0.1c0.1,0,0.3,0.1,0.5,0.1c0.2,0,0.5,0.1,0.8,0.2c0.2,0,0.3,0.1,0.5,0.1
			c0.2,0,0.3,0.1,0.5,0.2c0.4,0.1,0.8,0.2,1.2,0.4C85,4.4,85.5,4.6,86,4.8c0.5,0.2,1,0.5,1.5,0.7c0.5,0.3,1,0.6,1.6,0.9
			c0.3,0.2,0.5,0.4,0.8,0.6c0.3,0.2,0.5,0.4,0.8,0.6C91.2,8,91.7,8.4,92.2,9c1,1,1.9,2.2,2.7,3.5c0.8,1.3,1.4,2.8,1.8,4.3
			c0.1,0.4,0.2,0.8,0.3,1.2l0.1,0.3l0,0.3l0.1,0.6l0.1,0.6c0,0.2,0,0.4,0,0.6l0,0.6l0,0.3l0,0.2l0,0.1l0,0l0,0l-0.1,1.3l0,0.3
			c0,0.1,0,0.2,0,0.3L97.2,24l-0.1,0.6l0,0.3L97,25.1c-0.1,0.4-0.2,0.8-0.3,1.2c-0.5,1.5-1,3-1.8,4.3c-0.8,1.3-1.7,2.5-2.7,3.5
			c-0.2,0.2-0.3,0.3-0.5,0.5c0.8-0.1,1.7-0.2,2.7-0.1c3.5,0.3,6.2,2,6.1,3.9c-0.1,0.9-0.8,1.6-1.8,2.1c45.5,7.5,68.6,46.6,68.6,46.6
			C167.3,40.8,129.8,3.3,83.5,3.3z M116.4,43.6c-0.7-0.7-1.3-1.3-2-1.8l3.2-0.6C117.2,42,116.8,42.8,116.4,43.6z"/>
	</g>
	<linearGradient id="SVGID_3_" gradientUnits="userSpaceOnUse" x1="8.7971" y1="77.1246" x2="113.9849" y2="137.8548">
		<stop  offset="0" style="stop-color:#FFFFFF"/>
		<stop  offset="0.1884" style="stop-color:#FCFCFC"/>
		<stop  offset="0.3217" style="stop-color:#F3F3F3"/>
		<stop  offset="0.4381" style="stop-color:#E3E3E3"/>
		<stop  offset="0.5447" style="stop-color:#CDCDCD"/>
		<stop  offset="0.6448" style="stop-color:#B1B1B1"/>
		<stop  offset="0.7399" style="stop-color:#8E8E8E"/>
		<stop  offset="0.8311" style="stop-color:#646464"/>
		<stop  offset="0.917" style="stop-color:#353535"/>
		<stop  offset="1" style="stop-color:#000000"/>
	</linearGradient>
	<path class="st4" d="M130.6,87c0-0.9,0-1.9-0.1-2.8c0-0.1,0-0.1,0-0.2c0,0.9,0.1,1.7,0.1,2.6c0,7-1.6,13.7-4.3,19.7
		c-0.2,0.4-0.4,0.9-0.6,1.3c-2.6,5.2-6.1,9.8-10.4,13.7c-0.7,0.6-1.4,1.2-2.1,1.8c-1,0.8-2.1,1.6-3.2,2.4c-1.2,0.8-2.5,1.6-3.9,2.3
		c-6.6,3.6-14.2,5.7-22.3,5.7c-0.9,0-1.9,0-2.8-0.1c0.9,0.1,1.8,0.1,2.8,0.1c0,0-77.9,9.7-83-41.5c-0.2,0-0.4,0.1-0.5,0.1
		c2.6,43.9,38.9,78.6,83.4,78.7c0,0,0,0,0,0S130.7,135.1,130.6,87L130.6,87z"/>
	<path class="st1" d="M83.5,3.3c-6.8,0-12.2,1.5-18.6,3l2.8,31.3c0.2,0.1,0.3,0.1,0.5,0.2c0.5,0.2,1.1,0.5,1.6,0.8c0,0,0,0,0,0
		c0.5,0.3,1,0.6,1.4,1l12.1-0.4c1.8,0,3.6,0.1,5.4,0.2c-0.1-0.1-0.1-0.1-0.2-0.2c-0.1-0.1-0.2-0.3-0.3-0.4c-0.1-0.1-0.1-0.1-0.1-0.2
		c-0.1-0.1-0.1-0.3-0.2-0.4c0-0.1-0.1-0.1-0.1-0.2c-0.1-0.2-0.1-0.4-0.1-0.6c0.1-1.9,3.1-3.2,6.6-2.9c3.5,0.3,6.2,2,6.1,3.9
		c0,0.2-0.1,0.4-0.2,0.6c-0.1,0.1-0.2,0.3-0.3,0.4c0,0-0.1,0.1-0.1,0.2c-0.2,0.2-0.3,0.3-0.5,0.5c0,0,0,0,0,0
		c-0.2,0.2-0.5,0.3-0.7,0.4c45.5,7.5,68.6,46.6,68.6,46.6C167.3,40.8,129.8,3.3,83.5,3.3z"/>
	<g>
		<linearGradient id="SVGID_4_" gradientUnits="userSpaceOnUse" x1="85.0501" y1="41.2733" x2="86.087" y2="38.4245">
			<stop  offset="0" style="stop-color:#FFFFFF"/>
			<stop  offset="0.1884" style="stop-color:#FCFCFC"/>
			<stop  offset="0.3217" style="stop-color:#F3F3F3"/>
			<stop  offset="0.4381" style="stop-color:#E3E3E3"/>
			<stop  offset="0.5447" style="stop-color:#CDCDCD"/>
			<stop  offset="0.6448" style="stop-color:#B1B1B1"/>
			<stop  offset="0.7399" style="stop-color:#8E8E8E"/>
			<stop  offset="0.8311" style="stop-color:#646464"/>
			<stop  offset="0.917" style="stop-color:#353535"/>
			<stop  offset="1" style="stop-color:#000000"/>
		</linearGradient>
		<path class="st5" d="M89.9,40.2c-0.4-0.2-0.8-0.5-1.1-0.8c-1.8-0.1-3.6-0.2-5.4-0.2c0.4-0.1,0.8-0.2,1.2-0.4l-2.8,0.7l-0.7,0.3
			c0.9,0,1.7-0.1,2.6-0.1C85.8,39.8,87.9,39.9,89.9,40.2z"/>
		<linearGradient id="SVGID_5_" gradientUnits="userSpaceOnUse" x1="93.95" y1="174.5922" x2="138.1377" y2="53.1876">
			<stop  offset="0" style="stop-color:#FFFFFF"/>
			<stop  offset="0.1884" style="stop-color:#FCFCFC"/>
			<stop  offset="0.3217" style="stop-color:#F3F3F3"/>
			<stop  offset="0.4381" style="stop-color:#E3E3E3"/>
			<stop  offset="0.5447" style="stop-color:#CDCDCD"/>
			<stop  offset="0.6448" style="stop-color:#B1B1B1"/>
			<stop  offset="0.7399" style="stop-color:#8E8E8E"/>
			<stop  offset="0.8311" style="stop-color:#646464"/>
			<stop  offset="0.917" style="stop-color:#353535"/>
			<stop  offset="1" style="stop-color:#000000"/>
		</linearGradient>
		<path class="st6" d="M98.7,40.5c-0.8,0.4-1.9,0.7-3.1,0.8c19.4,5,34,22.2,35,43c0.1,0.9,0.1,1.8,0.1,2.8l0,0
			c0,48-47.1,83.8-47.1,83.8s0,0,0,0c46.2,0,83.7-37.5,83.7-83.8C167.3,87.1,144.2,48,98.7,40.5z"/>
	</g>
	<g>
		<path class="st7" d="M319.7,78.5c0-0.9,0-2.9,0.1-5.7c0-2.9,0.1-5.7,0.1-8.4c0-4.3-1.2-7.6-3.5-10.1c-2.3-2.4-5.8-3.7-10.5-3.7
			c-1,0-2.4,0-4.1,0.1c-1.7,0-3,0.1-3.9,0.1c-0.7,0-2.2,0-4.5-0.1c-2.3,0-3.8-0.1-4.5-0.1c-2.9,0-4.4,1.4-4.4,4.3
			c0,1.2,0,5.6,0.1,13c0,7.4,0.1,12.9,0.1,16.4c0,7.8,0,19.6-0.1,32.1h0c0,3.4,2.7,6.1,6.1,6.1c3.4,0,6.1-2.7,6.1-6.1v-7
			c0-0.6,0.3-0.9,0.9-0.9h8.2c4.5,0,8-1.2,10.3-3.7c2.3-2.4,3.5-6,3.5-10.6c0-2.4,0-5.3-0.1-8.5C319.7,82.5,319.7,80.1,319.7,78.5z
			 M307.5,93.4c0,2.7-1.3,4.1-4,4.1h-5.8c-0.5,0-0.8-0.3-0.8-0.8V62.8c0-0.5,0.3-0.8,0.8-0.8h5.7c2.7,0,4.1,1.4,4.1,4.1V93.4z"/>
	</g>
	<g>
		<path class="st7" d="M235.7,78.5c0-0.9,0-2.9,0.1-5.7c0-2.9,0.1-5.7,0.1-8.4c0-4.3-1.2-7.6-3.5-10.1c-2.3-2.4-5.8-3.7-10.5-3.7
			c-1,0-2.4,0-4.1,0.1c-1.7,0-3,0.1-3.9,0.1c-0.7,0-2.2,0-4.5-0.1c-2.3,0-3.8-0.1-4.5-0.1c-2.9,0-4.4,1.4-4.4,4.3
			c0,1.2,0,5.6,0.1,13c0,7.4,0.1,12.9,0.1,16.4c0,7.8,0,19.6-0.1,32.1h0c0,3.4,2.7,6.1,6.1,6.1c3.4,0,6.1-2.7,6.1-6.1h0v-7
			c0-0.6,0.3-0.9,0.9-0.9h8.2c4.5,0,8-1.2,10.3-3.7c2.3-2.4,3.5-6,3.5-10.6c0-2.4,0-5.3-0.1-8.5C235.7,82.5,235.7,80.1,235.7,78.5z
			 M223.5,93.4c0,2.7-1.3,4.1-4,4.1h-5.8c-0.5,0-0.8-0.3-0.8-0.8V62.8c0-0.5,0.3-0.8,0.8-0.8h5.7c2.7,0,4.1,1.4,4.1,4.1V93.4z"/>
	</g>
	<path class="st7" d="M361.4,94.4c0-1.4,0-4.1-0.1-8.3c0-4.2-0.1-7.2-0.1-9l0.1-20.3c0-3.4-2.8-6.1-6.1-6.1c-3.4,0-6.1,2.7-6.1,6.1
		h0v36.4c0,2.7-1.5,4.1-4.5,4.1h-0.8h-0.8c-3,0-4.5-1.4-4.5-4.1V56.8h0c0-3.4-2.7-6.1-6.1-6.1c-3.4,0-6.1,2.7-6.1,6.1l0.1,20.3
		c0,1.8,0,4.8-0.1,9c0,4.2-0.1,6.9-0.1,8.3c0,4.2,1.2,7.6,3.5,10.2c2.3,2.6,5.7,3.9,10.2,3.9h3.8h0.6c-0.9,2.4-1.7,4.3-2.3,5.8
		c-1.2,3.1,0.3,6.6,3.4,7.8c3.1,1.2,6.6-0.3,7.8-3.4l0,0l7-18.3C361,98.6,361.4,96.6,361.4,94.4z"/>
	<path class="st7" d="M277.4,94.4c0-1.4,0-4.1-0.1-8.3c0-4.2-0.1-7.2-0.1-9l0.1-20.3c0-3.4-2.8-6.1-6.1-6.1c-3.4,0-6.1,2.7-6.1,6.1
		h0v36.4c0,2.7-1.5,4.1-4.5,4.1h-0.8h-0.8c-3,0-4.5-1.4-4.5-4.1V56.8h0c0-3.4-2.7-6.1-6.1-6.1c-3.4,0-6.1,2.7-6.1,6.1l0.1,20.3
		c0,1.8,0,4.8-0.1,9c0,4.2-0.1,6.9-0.1,8.3c0,4.2,1.2,7.6,3.5,10.2c2.3,2.6,5.7,3.9,10.2,3.9h3.8h0.6c-0.9,2.4-1.7,4.3-2.3,5.8
		c-1.2,3.1,0.3,6.6,3.4,7.8c3.1,1.2,6.6-0.3,7.8-3.4l0,0l7-18.3C277,98.6,277.4,96.6,277.4,94.4z"/>
	<path class="st0" d="M87.8,37.4c0.1-1.4,1.7-2.4,3.9-2.8c0.2-0.2,0.3-0.3,0.5-0.5c1-1,1.9-2.2,2.7-3.5c0.8-1.3,1.4-2.8,1.8-4.3
		c0.1-0.4,0.2-0.8,0.3-1.2l0.1-0.3l0-0.3l0.1-0.6l0.1-0.6c0-0.1,0-0.2,0-0.3l0-0.3l0.1-1.3l0,0l0,0l0-0.1l0-0.2l0-0.3l0-0.6
		c0-0.2,0-0.4,0-0.6l-0.1-0.6l-0.1-0.6l0-0.3L97,18c-0.1-0.4-0.2-0.8-0.3-1.2c-0.5-1.5-1-3-1.8-4.3c-0.8-1.3-1.7-2.5-2.7-3.5
		c-0.5-0.5-1-1-1.5-1.4c-0.2-0.2-0.5-0.4-0.8-0.6c-0.3-0.2-0.5-0.4-0.8-0.6c-0.5-0.3-1.1-0.7-1.6-0.9C87,5.2,86.5,5,86,4.8
		c-0.5-0.2-1-0.4-1.4-0.5c-0.4-0.1-0.8-0.2-1.2-0.4c-0.2-0.1-0.4-0.1-0.5-0.2c-0.2,0-0.3-0.1-0.5-0.1c-0.3-0.1-0.6-0.1-0.8-0.2
		c-0.3-0.1-0.6-0.1-0.6-0.1C59.8,4,39.9,12.6,24.8,27.7C9.1,43.4,0.4,64.3,0.4,86.6c0,0.5,0,0.9,0,1.4c1.3,55.7,83.3,45.5,83.3,45.5
		c-25.8,0-46.9-21-46.9-46.9c0-14.5,6.7-27.5,17-36.1c0.1-0.1,0.3-0.2,0.4-0.3c1-0.8,2.1-1.6,3.1-2.3c0.2-0.1,0.4-0.2,0.6-0.4
		c1.1-0.7,2.1-1.3,3.2-2c0.2-0.1,0.4-0.2,0.6-0.3c1.1-0.6,2.2-1.1,3.4-1.6c0.2-0.1,0.5-0.2,0.7-0.3c0.9-0.4,1.9-0.7,2.8-1
		c-0.6-0.6-1.2-1.2-1.9-1.7c-1.5-1-3.3-1.6-5.2-1.9c-1.9-0.4-3.9-0.4-5.9-0.3c-2,0.1-4,0.4-6,0.9c1.9-0.8,3.8-1.5,5.9-1.9
		c2-0.5,4.1-0.8,6.3-0.8c2.1,0,4.4,0.3,6.5,1.2c1.7,0.7,3.2,1.9,4.5,3.3c0.4-0.1,0.7-0.2,1.1-0.3c0.3-0.1,0.5-0.1,0.8-0.2
		c1.2-0.2,2.5-0.4,3.7-0.6c0.3,0,0.6-0.1,0.9-0.1c0.6-0.1,1.1-0.1,1.6-0.2c0,0,0,0,0,0s0.2,0,0.6-0.1c0.2,0,0.5-0.1,0.8-0.2
		c0.1,0,0.3-0.1,0.5-0.1c0.2,0,0.3-0.1,0.5-0.2c0.4-0.1,0.8-0.2,1.2-0.4c0.4-0.2,0.9-0.3,1.4-0.5c0.5-0.2,1-0.5,1.5-0.7
		C87.6,37.6,87.7,37.5,87.8,37.4C87.8,37.4,87.8,37.4,87.8,37.4z"/>
	<linearGradient id="SVGID_6_" gradientUnits="userSpaceOnUse" x1="48.9086" y1="3.3284" x2="48.9086" y2="134.1741">
		<stop  offset="0" style="stop-color:#FFFFFF"/>
		<stop  offset="0.1884" style="stop-color:#FCFCFC"/>
		<stop  offset="0.3217" style="stop-color:#F3F3F3"/>
		<stop  offset="0.4381" style="stop-color:#E3E3E3"/>
		<stop  offset="0.5447" style="stop-color:#CDCDCD"/>
		<stop  offset="0.6448" style="stop-color:#B1B1B1"/>
		<stop  offset="0.7399" style="stop-color:#8E8E8E"/>
		<stop  offset="0.8311" style="stop-color:#646464"/>
		<stop  offset="0.917" style="stop-color:#353535"/>
		<stop  offset="1" style="stop-color:#000000"/>
	</linearGradient>
	<path class="st8" d="M87.8,37.4c0-0.3,0.1-0.5,0.2-0.8c0,0,0,0,0,0c0,0,0,0,0,0c0.1-0.1,0.2-0.3,0.3-0.4c0,0,0,0,0,0c0,0,0,0,0,0
		c0.4-0.5,1-0.9,1.8-1.2c0,0,0,0,0,0c0,0,0,0,0,0c0.1,0,0.2-0.1,0.3-0.1c0,0,0,0,0,0l0,0c0.4-0.1,0.8-0.3,1.3-0.3l0,0l0,0
		c0,0,0,0,0,0c0.2-0.2,0.3-0.3,0.5-0.5c1-1,1.9-2.2,2.7-3.5c0.8-1.3,1.4-2.8,1.8-4.3c0.1-0.4,0.2-0.8,0.3-1.2l0.1-0.3l0-0.3l0.1-0.6
		l0.1-0.6c0-0.1,0-0.2,0-0.3l0-0.3l0.1-1.3l0,0l0,0l0-0.1l0-0.2l0-0.3l0-0.6c0-0.2,0-0.4,0-0.6l-0.1-0.6l-0.1-0.6l0-0.3L97,18
		c-0.1-0.4-0.2-0.8-0.3-1.2c-0.5-1.5-1-3-1.8-4.3c-0.8-1.3-1.7-2.5-2.7-3.5c-0.5-0.5-1-1-1.5-1.4c-0.2-0.2-0.5-0.4-0.8-0.6
		c-0.3-0.2-0.5-0.4-0.8-0.6c-0.5-0.3-1.1-0.7-1.6-0.9C87,5.2,86.5,5,86,4.8c-0.5-0.2-1-0.4-1.4-0.5c-0.4-0.1-0.8-0.2-1.2-0.4
		c-0.2-0.1-0.4-0.1-0.5-0.2c-0.2,0-0.3-0.1-0.5-0.1c-0.3-0.1-0.6-0.1-0.8-0.2c-0.3-0.1-0.6-0.1-0.6-0.1C59.8,4,39.9,12.6,24.8,27.7
		C9.1,43.4,0.4,64.3,0.4,86.6c0,0.5,0,0.9,0,1.4c1.3,55.7,83.3,45.5,83.3,45.5c-25.8,0-46.9-21-46.9-46.9c0-14.5,6.7-27.5,17-36.1
		c0.1-0.1,0.3-0.2,0.4-0.3c1-0.8,2.1-1.6,3.1-2.3c0.2-0.1,0.4-0.2,0.6-0.4c1.1-0.7,2.1-1.3,3.2-2c0.2-0.1,0.4-0.2,0.6-0.3
		c1.1-0.6,2.2-1.1,3.4-1.6c0.2-0.1,0.5-0.2,0.7-0.3c0.9-0.4,1.9-0.7,2.8-1c0,0,0,0,0,0c0,0,0,0,0,0c0,0,0,0,0,0
		c-0.3-0.3-0.5-0.6-0.9-0.9c-0.3-0.3-0.7-0.5-1-0.8c-1.5-1-3.3-1.6-5.2-1.9c-1.9-0.4-3.9-0.4-5.9-0.3c-2,0.1-4,0.4-6,0.9
		c1.9-0.8,3.8-1.5,5.9-1.9c2-0.5,4.1-0.8,6.3-0.8c2.1,0,4.4,0.3,6.5,1.2c0.5,0.2,0.9,0.5,1.4,0.7c0,0,0,0,0,0c0,0,0,0,0,0
		c0.2,0.1,0.4,0.2,0.6,0.4c0,0,0,0,0,0c0,0,0,0,0,0c0.2,0.2,0.5,0.3,0.7,0.5v0c0.2,0.2,0.5,0.4,0.7,0.6c0,0,0,0,0,0v0c0,0,0,0,0,0
		c0.1,0.1,0.1,0.1,0.2,0.2c0,0,0,0,0,0c0.3,0.3,0.7,0.6,1,1c0.4-0.1,0.7-0.2,1.1-0.3c0.3-0.1,0.5-0.1,0.8-0.2
		c1.2-0.2,2.5-0.4,3.7-0.6c0.3,0,0.6-0.1,0.9-0.1c0.6-0.1,1.1-0.1,1.6-0.2c0,0,0,0,0,0s0.2,0,0.6-0.1c0.2,0,0.5-0.1,0.8-0.2
		c0.1,0,0.3-0.1,0.5-0.1c0.2,0,0.3-0.1,0.5-0.2c0.4-0.1,0.8-0.2,1.2-0.4c0.4-0.2,0.9-0.3,1.4-0.5c0.5-0.2,1-0.5,1.5-0.7
		C87.6,37.6,87.7,37.5,87.8,37.4C87.8,37.4,87.8,37.4,87.8,37.4z"/>
	<path class="st9" d="M115.4,42.6c0.7-0.2,1.3-0.5,1.9-0.8c0,0,0,0,0,0c0.5-0.3,1.1-0.6,1.6-1c0.1,0,0.1-0.1,0.2-0.1
		c0.5-0.4,0.9-0.8,1.4-1.2c0.1-0.1,0.1-0.1,0.2-0.2c0,0,0,0,0.1-0.1c0.4-0.4,0.8-0.8,1.1-1.3c0,0,0,0,0,0c0.4-0.5,0.7-1,1-1.5
		c0.1-0.1,0.1-0.2,0.2-0.3c0.3-0.5,0.5-1,0.7-1.6c0-0.1,0-0.1,0.1-0.2c0.2-0.5,0.3-1,0.4-1.6c0-0.1,0-0.2,0.1-0.3
		c0.1-0.4,0.1-0.9,0.2-1.3c0-0.1,0-0.3,0.1-0.4c0-0.1,0-0.2,0-0.4c0-0.4,0-0.7,0-1.1c0-0.3,0-0.5,0-0.8l0,0c-0.3-3.4-2-6.4-4.3-8.6
		l0,0L104.6,5.9c-0.1-0.1-0.3-0.2-0.4-0.3l-0.7-0.7l0,0c-4-3.4-9.4-5.3-15.1-4.7c-3.4,0.3-6.6,1.5-9.2,3.3c-1,0.1-1.9,0.1-2.9,0.2
		c-0.4,0-0.8,0.1-1.2,0.1c-1.2,0.1-2.4,0.3-3.6,0.5c-0.3,0-0.6,0.1-0.9,0.1c-45.8,9.3-33.9,80.7-33.7,82.2c0,0,0,0,0,0c0,0,0,0,0,0
		c0,0,0,0,0,0c0,0,0,0,0,0c0-14.5,6.7-27.5,17-36.1l0.4-0.3c1-0.8,2.1-1.6,3.1-2.3c0.2-0.1,0.4-0.2,0.6-0.4c1.1-0.7,2.1-1.3,3.2-2
		c0.2-0.1,0.4-0.2,0.6-0.3c1.1-0.6,2.2-1.1,3.4-1.6c0.2-0.1,0.5-0.2,0.7-0.3c0.9-0.4,1.9-0.7,2.8-1c-0.6-0.6-1.2-1.2-1.9-1.7
		c-1.5-1-3.3-1.6-5.2-1.9c-1.9-0.4-3.9-0.4-5.9-0.3c-2,0.1-4,0.4-6,0.9c1.9-0.8,3.8-1.5,5.9-1.9c2-0.5,4.1-0.8,6.3-0.8
		c2.1,0,4.4,0.3,6.5,1.2c1.7,0.7,3.2,1.9,4.5,3.3c0,0,0,0,0,0c4.1,4.7,10.4,7.5,17.2,6.8c0.6-0.1,1.2-0.2,1.8-0.3l0,0l0.2,0
		c0,0,0,0,0.1,0l21.6-4.4C114.3,43,114.9,42.8,115.4,42.6z"/>
	<linearGradient id="SVGID_7_" gradientUnits="userSpaceOnUse" x1="35.2909" y1="43.2855" x2="124.4093" y2="43.2855">
		<stop  offset="0" style="stop-color:#FFFFFF"/>
		<stop  offset="0.1884" style="stop-color:#FCFCFC"/>
		<stop  offset="0.3217" style="stop-color:#F3F3F3"/>
		<stop  offset="0.4381" style="stop-color:#E3E3E3"/>
		<stop  offset="0.5447" style="stop-color:#CDCDCD"/>
		<stop  offset="0.6448" style="stop-color:#B1B1B1"/>
		<stop  offset="0.7399" style="stop-color:#8E8E8E"/>
		<stop  offset="0.8311" style="stop-color:#646464"/>
		<stop  offset="0.917" style="stop-color:#353535"/>
		<stop  offset="1" style="stop-color:#000000"/>
	</linearGradient>
	<path class="st10" d="M115.4,42.6c0.7-0.2,1.3-0.5,1.9-0.8c0,0,0,0,0,0c0.5-0.3,1.1-0.6,1.6-1c0.1,0,0.1-0.1,0.2-0.1
		c0.5-0.4,0.9-0.8,1.4-1.2c0.1-0.1,0.1-0.1,0.2-0.2c0,0,0,0,0.1-0.1c0.4-0.4,0.8-0.8,1.1-1.3c0,0,0,0,0,0c0.4-0.5,0.7-1,1-1.5
		c0.1-0.1,0.1-0.2,0.2-0.3c0.3-0.5,0.5-1,0.7-1.6c0-0.1,0-0.1,0.1-0.2c0.2-0.5,0.3-1,0.4-1.6c0-0.1,0-0.2,0.1-0.3
		c0.1-0.4,0.1-0.9,0.2-1.3c0-0.1,0-0.3,0.1-0.4c0-0.1,0-0.2,0-0.4c0-0.4,0-0.7,0-1.1c0-0.3,0-0.5,0-0.8l0,0c-0.3-3.4-2-6.4-4.3-8.6
		l0,0L104.6,5.9c-0.1-0.1-0.3-0.2-0.4-0.3l-0.7-0.7l0,0c-4-3.4-9.4-5.3-15.1-4.7c-3.4,0.3-6.6,1.5-9.2,3.3c-1,0.1-1.9,0.1-2.9,0.2
		c-0.4,0-0.8,0.1-1.2,0.1c-1.2,0.1-2.4,0.3-3.6,0.5c-0.3,0-0.6,0.1-0.9,0.1c-45.8,9.3-33.9,80.7-33.7,82.2c0,0,0,0,0,0c0,0,0,0,0,0
		c0,0,0,0,0,0c0,0,0,0,0,0c0-14.5,6.7-27.5,17-36.1l0.4-0.3c1-0.8,2.1-1.6,3.1-2.3c0.2-0.1,0.4-0.2,0.6-0.4c1.1-0.7,2.1-1.3,3.2-2
		c0.2-0.1,0.4-0.2,0.6-0.3c1.1-0.6,2.2-1.1,3.4-1.6c0.2-0.1,0.5-0.2,0.7-0.3c0.9-0.4,1.9-0.7,2.8-1c-0.6-0.6-1.2-1.2-1.9-1.7
		c-1.5-1-3.3-1.6-5.2-1.9c-1.9-0.4-3.9-0.4-5.9-0.3c-2,0.1-4,0.4-6,0.9c1.9-0.8,3.8-1.5,5.9-1.9c2-0.5,4.1-0.8,6.3-0.8
		c2.1,0,4.4,0.3,6.5,1.2c1.7,0.7,3.2,1.9,4.5,3.3c0,0,0,0,0,0c4.1,4.7,10.4,7.5,17.2,6.8c0.6-0.1,1.2-0.2,1.8-0.3l0,0l0.2,0
		c0,0,0,0,0.1,0l21.6-4.4C114.3,43,114.9,42.8,115.4,42.6z"/>
	<path class="st11" d="M93.9,41.3c-3.5-0.3-6.2-2-6.1-3.9c0.1-1.9,3.1-3.2,6.6-2.9c3.5,0.3,6.2,2,6.1,3.9
		C100.3,40.2,97.4,41.5,93.9,41.3z"/>
</g>
</svg>
